<svg width="18" height="18" viewBox="0 0 18 18" fill="none" xmlns="http://www.w3.org/2000/svg">
<g clip-path="url(#clip0_877_6626)">
<path fill-rule="evenodd" clip-rule="evenodd" d="M9.0002 5.44922C9.30395 5.44922 9.5502 5.69546 9.5502 5.99922V8.44922H12.0002C12.304 8.44922 12.5502 8.69546 12.5502 8.99922C12.5502 9.30298 12.304 9.54922 12.0002 9.54922H9.5502V11.9992C9.5502 12.303 9.30395 12.5492 9.0002 12.5492C8.69644 12.5492 8.4502 12.303 8.4502 11.9992V9.54922H6.0002C5.69644 9.54922 5.4502 9.30298 5.4502 8.99922C5.4502 8.69546 5.69644 8.44922 6.0002 8.44922H8.4502V5.99922C8.4502 5.69546 8.69644 5.44922 9.0002 5.44922Z" fill="#000000"/>
</g>
<defs>
<clipPath id="clip0_877_6626">
<rect width="18" height="18" fill="white"/>
</clipPath>
</defs>
</svg>
