<svg width="15" height="15" viewBox="0 0 15 15" fill="none" xmlns="http://www.w3.org/2000/svg">
<g clip-path="url(#clip0_150_13559)">
<path d="M13.0502 5.01137C13.0939 5.05491 13.1285 5.10664 13.1522 5.16359C13.1758 5.22054 13.188 5.28159 13.188 5.34325C13.188 5.4049 13.1758 5.46595 13.1522 5.5229C13.1285 5.57985 13.0939 5.63158 13.0502 5.67512L11.5062 7.21824L13.0502 8.76137C13.1383 8.84939 13.1877 8.96877 13.1877 9.09324C13.1877 9.21772 13.1383 9.3371 13.0502 9.42512C12.9622 9.51314 12.8428 9.56259 12.7184 9.56259C12.5939 9.56259 12.4745 9.51314 12.3865 9.42512L10.8434 7.88106L9.30024 9.42512C9.21222 9.51314 9.09284 9.56259 8.96837 9.56259C8.84389 9.56259 8.72451 9.51314 8.63649 9.42512C8.54847 9.3371 8.49902 9.21772 8.49902 9.09324C8.49902 8.96877 8.54847 8.84939 8.63649 8.76137L10.1806 7.21824L8.63649 5.67512C8.59291 5.63154 8.55834 5.5798 8.53475 5.52285C8.51116 5.46591 8.49902 5.40488 8.49902 5.34325C8.49902 5.28161 8.51116 5.22058 8.53475 5.16364C8.55834 5.10669 8.59291 5.05495 8.63649 5.01137C8.72451 4.92335 8.84389 4.8739 8.96837 4.8739C9.03 4.8739 9.09103 4.88604 9.14797 4.90963C9.20492 4.93322 9.25666 4.96779 9.30024 5.01137L10.8434 6.55543L12.3865 5.01137C12.43 4.96772 12.4818 4.93308 12.5387 4.90945C12.5957 4.88582 12.6567 4.87366 12.7184 4.87366C12.78 4.87366 12.8411 4.88582 12.898 4.90945C12.955 4.93308 13.0067 4.96772 13.0502 5.01137Z" fill="black"/>
<path d="M6.55305 3.21911C6.50612 3.14449 6.43911 3.08462 6.35969 3.04636C6.28012 3.00807 6.19135 2.99303 6.10361 3.00299C6.01587 3.01294 5.93272 3.04747 5.86375 3.10261L3.64844 4.87448H1.46875C1.34443 4.87448 1.2252 4.92387 1.13729 5.01178C1.04939 5.09968 1 5.21891 1 5.34323V9.09323C1 9.21755 1.04939 9.33678 1.13729 9.42469C1.2252 9.5126 1.34443 9.56198 1.46875 9.56198H3.64844L5.86375 11.3339C5.93268 11.3889 6.01573 11.4234 6.10337 11.4333C6.19101 11.4433 6.27969 11.4283 6.35919 11.3901C6.4387 11.3519 6.50583 11.2921 6.55284 11.2174C6.59986 11.1428 6.62487 11.0564 6.625 10.9682V3.46823C6.62492 3.38008 6.59998 3.29374 6.55305 3.21911Z" stroke="black" stroke-width="0.8" stroke-linejoin="round"/>
</g>
<defs>
<clipPath id="clip0_150_13559">
<rect width="15" height="15" fill="white"/>
</clipPath>
</defs>
</svg>
