<svg width="15" height="15" viewBox="0 0 15 15" fill="none" xmlns="http://www.w3.org/2000/svg">
<g clip-path="url(#clip0_150_13553)">
<path d="M11.4609 7.21811C11.4617 7.77223 11.3529 8.32103 11.1408 8.83298C10.9886 9.20045 10.7854 9.54373 10.5377 9.85293C10.376 10.0548 10.0772 10.0531 9.89433 9.87025C9.71113 9.68706 9.71449 9.39166 9.86987 9.18435C10.0336 8.96597 10.1696 8.72745 10.2745 8.47417C10.4394 8.07597 10.524 7.64911 10.5234 7.21811C10.524 6.78712 10.4394 6.36027 10.2745 5.96208C10.1696 5.7088 10.0335 5.47028 9.86982 5.25188C9.71446 5.04456 9.71112 4.74918 9.89431 4.56599C10.0772 4.38311 10.376 4.38146 10.5377 4.58331C10.7854 4.89251 10.9886 5.23578 11.1408 5.60324C11.3529 6.11519 11.4617 6.66399 11.4609 7.21811Z" fill="black"/>
<path d="M8.55284 3.21887C8.59986 3.2935 8.62487 3.37988 8.625 3.46808V10.9681C8.62487 11.0563 8.59986 11.1427 8.55284 11.2173C8.50583 11.2919 8.4387 11.3518 8.35919 11.39C8.27969 11.4281 8.19101 11.4431 8.10337 11.4332C8.01573 11.4232 7.93267 11.3887 7.86375 11.3337L5.64844 9.56183H3.46875C3.34443 9.56183 3.2252 9.51245 3.13729 9.42454C3.04939 9.33663 3 9.2174 3 9.09308V5.34308C3 5.21876 3.04939 5.09953 3.13729 5.01163C3.2252 4.92372 3.34443 4.87433 3.46875 4.87433H5.64844L7.86375 3.10246C7.93267 3.04742 8.01573 3.01294 8.10337 3.00299C8.19101 2.99304 8.27969 3.00802 8.35919 3.04621C8.4387 3.0844 8.50583 3.14424 8.55284 3.21887Z" stroke="black" stroke-width="0.8"/>
</g>
<defs>
<clipPath id="clip0_150_13553">
<rect width="15" height="15" fill="white"/>
</clipPath>
</defs>
</svg>
