<svg width="36" height="36" viewBox="0 0 36 36" fill="none" xmlns="http://www.w3.org/2000/svg">
<g clip-path="url(#clip0_106_938)">
<g filter="url(#filter0_b_106_938)">
<path d="M22.9479 28.9847C21.7094 29.6476 20.3488 29.9791 18.9533 30.1012C16.86 30.2931 14.819 29.9791 12.8828 29.1243C12.1152 28.7754 11.3826 28.3567 10.6848 27.8857C9.20209 26.8913 8.08568 25.5655 7.16115 24.0478C6.4285 22.8266 5.95751 21.5008 5.69586 20.1227C5.45164 18.8666 5.45164 17.5932 5.60864 16.3197C5.78308 14.9764 6.18429 13.7029 6.74249 12.4818C7.12626 11.6444 7.66702 10.8768 8.24267 10.1267C9.27187 8.76601 10.615 7.80653 12.0803 6.98662C13.0398 6.44583 14.1038 6.09693 15.1854 5.87014C16.232 5.64336 17.2786 5.57358 18.3427 5.60847C19.7906 5.6608 21.1512 6.0097 22.4944 6.53305C23.4015 6.8994 24.2213 7.4053 25.0237 7.96354C26.4716 8.97535 27.5706 10.2837 28.4428 11.8014C29.1231 12.9702 29.5941 14.2263 29.8383 15.5521C30.0825 16.8256 30.1174 18.1165 29.9604 19.4249C29.8383 20.3843 29.5941 21.2915 29.2801 22.1812C29.2626 22.251 29.2626 22.3207 29.2277 22.3731C28.7916 23.0011 28.844 23.664 29.0184 24.3618C29.315 25.6876 29.5592 27.0134 29.8732 28.3392C30.065 29.1243 29.3847 30.1884 28.2683 29.9965C27.0647 29.7872 25.8611 29.5255 24.6574 29.2813C24.1167 29.1592 23.5759 29.0894 22.9479 28.9847Z" fill="white" fill-opacity="0.85"/>
<path d="M22.9479 28.9847C21.7094 29.6476 20.3488 29.9791 18.9533 30.1012C16.86 30.2931 14.819 29.9791 12.8828 29.1243C12.1152 28.7754 11.3826 28.3567 10.6848 27.8857C9.20209 26.8913 8.08568 25.5655 7.16115 24.0478C6.4285 22.8266 5.95751 21.5008 5.69586 20.1227C5.45164 18.8666 5.45164 17.5932 5.60864 16.3197C5.78308 14.9764 6.18429 13.7029 6.74249 12.4818C7.12626 11.6444 7.66702 10.8768 8.24267 10.1267C9.27187 8.76601 10.615 7.80653 12.0803 6.98662C13.0398 6.44583 14.1038 6.09693 15.1854 5.87014C16.232 5.64336 17.2786 5.57358 18.3427 5.60847C19.7906 5.6608 21.1512 6.0097 22.4944 6.53305C23.4015 6.8994 24.2213 7.4053 25.0237 7.96354C26.4716 8.97535 27.5706 10.2837 28.4428 11.8014C29.1231 12.9702 29.5941 14.2263 29.8383 15.5521C30.0825 16.8256 30.1174 18.1165 29.9604 19.4249C29.8383 20.3843 29.5941 21.2915 29.2801 22.1812C29.2626 22.251 29.2626 22.3207 29.2277 22.3731C28.7916 23.0011 28.844 23.664 29.0184 24.3618C29.315 25.6876 29.5592 27.0134 29.8732 28.3392C30.065 29.1243 29.3847 30.1884 28.2683 29.9965C27.0647 29.7872 25.8611 29.5255 24.6574 29.2813C24.1167 29.1592 23.5759 29.0894 22.9479 28.9847Z" stroke="#FF901B"/>
</g>
<path fill-rule="evenodd" clip-rule="evenodd" d="M13.8 18.15C13.8 18.7851 13.2851 19.3 12.65 19.3C12.0149 19.3 11.5 18.7851 11.5 18.15C11.5 17.5149 12.0149 17 12.65 17C13.2851 17 13.8 17.5149 13.8 18.15ZM19.0734 18.15C19.0734 18.7851 18.5586 19.3 17.9234 19.3C17.2883 19.3 16.7734 18.7851 16.7734 18.15C16.7734 17.5149 17.2883 17 17.9234 17C18.5586 17 19.0734 17.5149 19.0734 18.15ZM23.1734 19.3C23.8086 19.3 24.3234 18.7851 24.3234 18.15C24.3234 17.5149 23.8086 17 23.1734 17C22.5383 17 22.0234 17.5149 22.0234 18.15C22.0234 18.7851 22.5383 19.3 23.1734 19.3Z" fill="#FF901B"/>
</g>
<defs>
<filter id="filter0_b_106_938" x="-35" y="-34.9" width="105.556" height="105.556" filterUnits="userSpaceOnUse" color-interpolation-filters="sRGB">
<feFlood flood-opacity="0" result="BackgroundImageFix"/>
<feGaussianBlur in="BackgroundImageFix" stdDeviation="20"/>
<feComposite in2="SourceAlpha" operator="in" result="effect1_backgroundBlur_106_938"/>
<feBlend mode="normal" in="SourceGraphic" in2="effect1_backgroundBlur_106_938" result="shape"/>
</filter>
<clipPath id="clip0_106_938">
<rect width="36" height="36" fill="white"/>
</clipPath>
</defs>
</svg>
