<svg width="18" height="18" viewBox="0 0 18 18" fill="none" xmlns="http://www.w3.org/2000/svg">
<g clip-path="url(#clip0_1178_6606)">
<path fill-rule="evenodd" clip-rule="evenodd" d="M11.7638 2.48837C11.7638 2.21865 11.9827 2 12.2526 2H14.3263C15.2506 2 16 2.74872 16 3.6723L16 14.3277C16 15.2513 15.2506 16 14.3263 16H12.2526C11.9827 16 11.7638 15.7813 11.7638 15.5116C11.7638 15.2419 11.9827 15.0233 12.2526 15.0233H14.3263C14.7107 15.0233 15.0224 14.7118 15.0224 14.3277L15.0224 3.6723C15.0224 3.28816 14.7107 2.97674 14.3263 2.97674H12.2526C11.9827 2.97674 11.7638 2.75809 11.7638 2.48837ZM3.67373 2.97675C3.28926 2.97675 2.97758 3.28816 2.97758 3.67231L2.97758 14.3277C2.97758 14.7118 3.28925 15.0233 3.67373 15.0233L5.74737 15.0233C6.01732 15.0233 6.23616 15.2419 6.23616 15.5116C6.23616 15.7813 6.01732 16 5.74737 16L3.67373 16C2.74936 16 2 15.2513 2 14.3277L2 3.67231C2 2.74872 2.74936 2 3.67373 2L5.74738 2C6.01733 2 6.23616 2.21865 6.23616 2.48838C6.23616 2.7581 6.01733 2.97675 5.74738 2.97675L3.67373 2.97675Z" fill="#A3A3A3"/>
</g>
<defs>
<clipPath id="clip0_1178_6606">
<rect width="18" height="18" fill="white"/>
</clipPath>
</defs>
</svg>
