<svg width="18" height="18" viewBox="0 0 18 18" fill="none" xmlns="http://www.w3.org/2000/svg">
<g clip-path="url(#clip0_75_493)">
<path d="M11.8887 6.93891C12.1034 6.72412 12.1034 6.37588 11.8887 6.16109C11.6739 5.9463 11.3256 5.9463 11.1108 6.16109L9.02561 8.24632L6.94329 6.16399C6.7285 5.94921 6.38026 5.94921 6.16547 6.16399C5.95068 6.37878 5.95068 6.72702 6.16547 6.94181L8.24779 9.02414L6.16109 11.1108C5.9463 11.3256 5.9463 11.6739 6.16109 11.8887C6.37588 12.1034 6.72412 12.1034 6.93891 11.8887L9.02561 9.80195L11.1152 11.8916C11.33 12.1063 11.6782 12.1063 11.893 11.8916C12.1078 11.6768 12.1078 11.3285 11.893 11.1137L9.80343 9.02414L11.8887 6.93891Z" fill="black"/>
</g>
<defs>
<clipPath id="clip0_75_493">
<rect width="18" height="18" fill="white"/>
</clipPath>
</defs>
</svg>
