<svg width="18" height="18" viewBox="0 0 18 18" fill="none" xmlns="http://www.w3.org/2000/svg">
<g clip-path="url(#clip0_87_5036)">
<path fill-rule="evenodd" clip-rule="evenodd" d="M13.8712 8.55005C13.8712 11.489 11.4887 13.8715 8.5498 13.8715C5.61086 13.8715 3.22838 11.489 3.22838 8.55005C3.22838 5.6111 5.61086 3.22862 8.5498 3.22862C11.4887 3.22862 13.8712 5.6111 13.8712 8.55005ZM14.7998 8.55005C14.7998 12.0018 12.0016 14.8 8.5498 14.8C5.09803 14.8 2.2998 12.0018 2.2998 8.55005C2.2998 5.09827 5.09803 2.30005 8.5498 2.30005C12.0016 2.30005 14.7998 5.09827 14.7998 8.55005ZM9.04931 6.59855L8.76232 10.5131H8.33757L8.07354 6.59855V4.53223H9.04931V6.59855ZM9.14114 11.2593V12.5679H7.94727V11.2593H9.14114Z" fill="#CF0000"/>
</g>
<defs>
<clipPath id="clip0_87_5036">
<rect width="18" height="18" fill="white"/>
</clipPath>
</defs>
</svg>
