<svg width="12" height="12" viewBox="0 0 12 12" fill="none" xmlns="http://www.w3.org/2000/svg">
<path d="M6 0C6.11366 0 6.22267 0.0451529 6.30305 0.125526C6.38342 0.205898 6.42857 0.314907 6.42857 0.428571V3C6.42857 3.11366 6.38342 3.22267 6.30305 3.30305C6.22267 3.38342 6.11366 3.42857 6 3.42857C5.88634 3.42857 5.77733 3.38342 5.69695 3.30305C5.61658 3.22267 5.57143 3.11366 5.57143 3V0.428571C5.57143 0.314907 5.61658 0.205898 5.69695 0.125526C5.77733 0.0451529 5.88634 0 6 0ZM6 8.57143C6.11366 8.57143 6.22267 8.61658 6.30305 8.69695C6.38342 8.77733 6.42857 8.88634 6.42857 9V11.5714C6.42857 11.6851 6.38342 11.7941 6.30305 11.8745C6.22267 11.9548 6.11366 12 6 12C5.88634 12 5.77733 11.9548 5.69695 11.8745C5.61658 11.7941 5.57143 11.6851 5.57143 11.5714V9C5.57143 8.88634 5.61658 8.77733 5.69695 8.69695C5.77733 8.61658 5.88634 8.57143 6 8.57143ZM12 6C12 6.11366 11.9548 6.22267 11.8745 6.30305C11.7941 6.38342 11.6851 6.42857 11.5714 6.42857H9C8.88634 6.42857 8.77733 6.38342 8.69695 6.30305C8.61658 6.22267 8.57143 6.11366 8.57143 6C8.57143 5.88634 8.61658 5.77733 8.69695 5.69695C8.77733 5.61658 8.88634 5.57143 9 5.57143H11.5714C11.6851 5.57143 11.7941 5.61658 11.8745 5.69695C11.9548 5.77733 12 5.88634 12 6ZM3.42857 6C3.42857 6.11366 3.38342 6.22267 3.30305 6.30305C3.22267 6.38342 3.11366 6.42857 3 6.42857H0.428571C0.314907 6.42857 0.205898 6.38342 0.125526 6.30305C0.0451529 6.22267 0 6.11366 0 6C0 5.88634 0.0451529 5.77733 0.125526 5.69695C0.205898 5.61658 0.314907 5.57143 0.428571 5.57143H3C3.11366 5.57143 3.22267 5.61658 3.30305 5.69695C3.38342 5.77733 3.42857 5.88634 3.42857 6ZM1.75714 1.75714C1.83751 1.6768 1.9465 1.63166 2.06014 1.63166C2.17378 1.63166 2.28277 1.6768 2.36314 1.75714L4.18286 3.576C4.26093 3.65683 4.30412 3.76509 4.30315 3.87746C4.30217 3.98983 4.2571 4.09732 4.17764 4.17678C4.09818 4.25624 3.99068 4.30131 3.87831 4.30229C3.76594 4.30327 3.65769 4.26007 3.57686 4.182L1.75714 2.36314C1.6768 2.28277 1.63166 2.17378 1.63166 2.06014C1.63166 1.9465 1.6768 1.83751 1.75714 1.75714ZM7.818 7.818C7.89837 7.73766 8.00736 7.69252 8.121 7.69252C8.23464 7.69252 8.34363 7.73766 8.424 7.818L10.2429 9.63686C10.3209 9.71769 10.3641 9.82595 10.3631 9.93832C10.3622 10.0507 10.3171 10.1582 10.2376 10.2376C10.1582 10.3171 10.0507 10.3622 9.93832 10.3631C9.82595 10.3641 9.71769 10.3209 9.63686 10.2429L7.818 8.424C7.73766 8.34363 7.69252 8.23464 7.69252 8.121C7.69252 8.00736 7.73766 7.89837 7.818 7.818ZM10.2429 1.758C10.3229 1.83833 10.3679 1.94714 10.3679 2.06057C10.3679 2.174 10.3229 2.28281 10.2429 2.36314L8.424 4.18286C8.34317 4.26093 8.23491 4.30412 8.12254 4.30315C8.01017 4.30217 7.90268 4.2571 7.82322 4.17764C7.74376 4.09818 7.69869 3.99068 7.69771 3.87831C7.69674 3.76594 7.73993 3.65769 7.818 3.57686L9.63686 1.758C9.71723 1.67766 9.82622 1.63252 9.93986 1.63252C10.0535 1.63252 10.1625 1.67766 10.2429 1.758ZM4.182 7.818C4.26235 7.89837 4.30748 8.00736 4.30748 8.121C4.30748 8.23464 4.26235 8.34363 4.182 8.424L2.36314 10.2429C2.28231 10.3209 2.17406 10.3641 2.06169 10.3631C1.94932 10.3622 1.84182 10.3171 1.76236 10.2376C1.6829 10.1582 1.63783 10.0507 1.63685 9.93832C1.63588 9.82595 1.67908 9.71769 1.75714 9.63686L3.576 7.818C3.65637 7.73766 3.76536 7.69252 3.879 7.69252C3.99264 7.69252 4.10163 7.73766 4.182 7.818Z" fill="#FF901B"/>
</svg>
