<svg width="15" height="15" viewBox="0 0 15 15" fill="none" xmlns="http://www.w3.org/2000/svg">
<g clip-path="url(#clip0_150_13563)">
<path fill-rule="evenodd" clip-rule="evenodd" d="M4.41746 2.78026C4.0525 2.56843 3.60582 2.83189 3.60582 3.23154V11.7172C3.60582 12.1175 4.05337 12.3806 4.41767 12.1695L11.7323 7.92534C11.8117 7.87999 11.8777 7.81445 11.9237 7.73535C11.9696 7.65624 11.9938 7.5664 11.9938 7.47493C11.9938 7.38346 11.9696 7.29362 11.9237 7.21452C11.8777 7.13541 11.8117 7.06986 11.7323 7.02451L11.7298 7.02311L4.41746 2.78026ZM4.82202 2.08312C3.94357 1.57331 2.7998 2.18324 2.7998 3.23154V11.7172C2.7998 12.7671 3.94503 13.3751 4.82187 12.8668L12.1319 8.62534C12.1323 8.62509 12.1327 8.62485 12.1331 8.62461C12.3355 8.50881 12.5037 8.34167 12.6207 8.14006C12.738 7.93802 12.7998 7.70855 12.7998 7.47493C12.7998 7.24131 12.738 7.01184 12.6207 6.80981C12.5037 6.60821 12.3355 6.44107 12.1332 6.32528C12.1327 6.32503 12.1323 6.32477 12.1319 6.32452L4.82202 2.08312C4.82204 2.08313 4.82201 2.08312 4.82202 2.08312Z" fill="black"/>
</g>
<defs>
<clipPath id="clip0_150_13563">
<rect width="15" height="15" fill="white"/>
</clipPath>
</defs>
</svg>
