<svg width="15" height="15" viewBox="0 0 15 15" fill="none" xmlns="http://www.w3.org/2000/svg">
<g clip-path="url(#clip0_75_454)">
<path fill-rule="evenodd" clip-rule="evenodd" d="M3.31396 2.76744C3.01213 2.76744 2.76744 3.01212 2.76744 3.31395V5.36822C2.76744 5.58014 2.59565 5.75194 2.38372 5.75194C2.1718 5.75194 2 5.58014 2 5.36822V3.31395C2 2.58828 2.58828 2 3.31396 2H5.36822C5.58014 2 5.75194 2.1718 5.75194 2.38372C5.75194 2.59564 5.58014 2.76744 5.36822 2.76744H3.31396ZM9.24806 2.38372C9.24806 2.1718 9.41986 2 9.63178 2H11.686C12.4117 2 13 2.58828 13 3.31395V5.36822C13 5.58014 12.8282 5.75194 12.6163 5.75194C12.4044 5.75194 12.2326 5.58014 12.2326 5.36822V3.31395C12.2326 3.01212 11.9879 2.76744 11.686 2.76744H9.63178C9.41986 2.76744 9.24806 2.59564 9.24806 2.38372ZM2.38372 9.24806C2.59564 9.24806 2.76744 9.41986 2.76744 9.63178V11.686C2.76744 11.9879 3.01212 12.2326 3.31395 12.2326H5.36822C5.58014 12.2326 5.75194 12.4044 5.75194 12.6163C5.75194 12.8282 5.58014 13 5.36822 13H3.31395C2.58828 13 2 12.4117 2 11.686V9.63178C2 9.41986 2.1718 9.24806 2.38372 9.24806ZM12.6163 9.24806C12.8282 9.24806 13 9.41986 13 9.63178V11.686C13 12.4117 12.4117 13 11.686 13H9.63178C9.41986 13 9.24806 12.8282 9.24806 12.6163C9.24806 12.4044 9.41986 12.2326 9.63178 12.2326H11.686C11.9879 12.2326 12.2326 11.9879 12.2326 11.686V9.63178C12.2326 9.41986 12.4044 9.24806 12.6163 9.24806Z" fill="black"/>
<path fill-rule="evenodd" clip-rule="evenodd" d="M9.20527 5.62388H5.79442C5.70023 5.62388 5.62388 5.70023 5.62388 5.79442V9.20527C5.62388 9.29946 5.70023 9.37582 5.79442 9.37582H9.20527C9.29946 9.37582 9.37582 9.29946 9.37582 9.20527V5.79442C9.37582 5.70023 9.29946 5.62388 9.20527 5.62388ZM5.79442 4.94171C5.32348 4.94171 4.94171 5.32348 4.94171 5.79442V9.20527C4.94171 9.67621 5.32348 10.058 5.79442 10.058H9.20527C9.67621 10.058 10.058 9.67621 10.058 9.20527V5.79442C10.058 5.32348 9.67621 4.94171 9.20527 4.94171H5.79442Z" fill="black"/>
</g>
<defs>
<clipPath id="clip0_75_454">
<rect width="15" height="15" fill="white"/>
</clipPath>
</defs>
</svg>
