<svg width="26" height="26" viewBox="0 0 26 26" fill="none" xmlns="http://www.w3.org/2000/svg">
<g clip-path="url(#clip0_1_27428)">
<path fill-rule="evenodd" clip-rule="evenodd" d="M12.6468 19.4342C12.9133 19.7387 13.3869 19.7386 13.6534 19.4342L17.328 15.2346C17.5712 14.9566 17.9937 14.9285 18.2716 15.1717C18.5496 15.4149 18.5777 15.8374 18.3345 16.1153L14.6599 20.3149C13.8606 21.2284 12.4396 21.2284 11.6403 20.3149L7.96566 16.1153C7.72246 15.8374 7.75062 15.4149 8.02857 15.1717C8.30652 14.9285 8.72901 14.9566 8.97221 15.2346L12.6468 19.4342ZM8.02857 10.8283C7.75062 10.5851 7.72245 10.1626 7.96566 9.88467L11.6403 5.68511C12.4396 4.77163 13.8606 4.77163 14.6599 5.68511L18.3345 9.88467C18.5777 10.1626 18.5496 10.5851 18.2716 10.8283C17.9937 11.0715 17.5712 11.0433 17.328 10.7654L13.6534 6.56584C13.3869 6.26135 12.9133 6.26135 12.6468 6.56584L8.97221 10.7654C8.729 11.0433 8.30652 11.0715 8.02857 10.8283Z" fill="black"/>
</g>
<defs>
<clipPath id="clip0_1_27428">
<rect width="26" height="26" fill="white"/>
</clipPath>
</defs>
</svg>
