<svg width="15" height="15" viewBox="0 0 15 15" fill="none" xmlns="http://www.w3.org/2000/svg">
<g clip-path="url(#clip0_75_463)">
<g clip-path="url(#clip1_75_463)">
<path fill-rule="evenodd" clip-rule="evenodd" d="M0.5 7.51918C0.5 3.45342 3.39722 0.5 7.46111 0.5C11.525 0.5 14.5 3.45342 14.5 7.51918C14.4806 11.5658 11.5056 14.5 7.46111 14.5C3.41667 14.5 0.519444 11.5658 0.5 7.51918ZM8.78171 7.27083C9.73449 7.02151 10.2595 6.35028 10.2595 5.42973C10.2595 4.24069 9.13171 3.30097 7.51782 3.30097C5.98171 3.30097 4.89282 4.18316 4.58171 5.27631C4.54913 5.40484 4.5302 5.51991 4.51348 5.62153C4.51024 5.64121 4.50709 5.66038 4.50394 5.67905L5.78727 5.85165C5.78727 5.7174 5.80671 5.62151 5.8456 5.46809C6.05949 4.77768 6.64282 4.37494 7.4206 4.37494C8.33449 4.37494 8.91782 4.83521 8.91782 5.62151C8.91782 6.35028 8.41227 6.86809 7.34282 6.86809H6.40949V7.86535H7.44005C8.56782 7.86535 9.13171 8.38316 9.13171 9.16946C9.13171 9.97494 8.50949 10.627 7.47894 10.627C6.74005 10.627 6.0206 10.2626 5.74838 9.5722C5.70949 9.45713 5.6706 9.32288 5.65116 9.18864L4.34838 9.36124C4.36438 9.50327 4.39355 9.60634 4.43588 9.75594C4.44499 9.78814 4.45471 9.8225 4.46505 9.85987C4.85394 10.9722 6.04005 11.7393 7.53727 11.7393C9.24838 11.7393 10.5317 10.6653 10.5317 9.24617C10.5317 8.28727 9.98727 7.52014 8.78171 7.27083Z" fill="black"/>
</g>
</g>
<defs>
<clipPath id="clip0_75_463">
<rect width="15" height="15" fill="white"/>
</clipPath>
<clipPath id="clip1_75_463">
<rect width="15" height="15" fill="white"/>
</clipPath>
</defs>
</svg>
