<svg width="15" height="15" viewBox="0 0 15 15" fill="none" xmlns="http://www.w3.org/2000/svg">
<g clip-path="url(#clip0_75_460)">
<g clip-path="url(#clip1_75_460)">
<path fill-rule="evenodd" clip-rule="evenodd" d="M0.5 7.51918C0.5 3.45342 3.39722 0.5 7.46111 0.5C11.525 0.5 14.5 3.45342 14.5 7.51918C14.4806 11.5658 11.5056 14.5 7.46111 14.5C3.41667 14.5 0.519444 11.5658 0.5 7.51918ZM8.13988 8.8427C9.55932 7.63448 10.2399 6.75229 10.2399 5.67831C10.2399 4.22078 9.05377 3.2427 7.43988 3.2427C5.92321 3.2427 4.77599 4.18242 4.50377 5.54407C4.46488 5.65914 4.44543 5.81256 4.44543 5.88927L5.74821 6.10023C5.74821 6.0427 5.76766 5.88927 5.7871 5.7742C5.94266 4.91119 6.46766 4.31667 7.38154 4.31667C8.25654 4.31667 8.85932 4.89201 8.85932 5.69749C8.85932 6.3879 8.5871 6.96325 7.34266 8.09475L4.46488 10.6838V11.566H10.4538V10.4537H6.21488L8.13988 8.8427Z" fill="black"/>
</g>
</g>
<defs>
<clipPath id="clip0_75_460">
<rect width="15" height="15" fill="white"/>
</clipPath>
<clipPath id="clip1_75_460">
<rect width="15" height="15" fill="white"/>
</clipPath>
</defs>
</svg>
