<svg width="8" height="12" viewBox="0 0 8 12" fill="none" xmlns="http://www.w3.org/2000/svg">
<path fill-rule="evenodd" clip-rule="evenodd" d="M3.6237 10.8293C3.82291 11.0569 4.17707 11.0569 4.37628 10.8293L7.12371 7.68933C7.30555 7.48152 7.62143 7.46046 7.82925 7.6423C8.03706 7.82414 8.05812 8.14002 7.87628 8.34784L5.12886 11.4878C4.53124 12.1707 3.46874 12.1707 2.87112 11.4878L0.123702 8.34784C-0.0581385 8.14002 -0.0370794 7.82414 0.170739 7.6423C0.378557 7.46046 0.694439 7.48152 0.876279 7.68933L3.6237 10.8293ZM0.170736 4.39484C-0.0370829 4.213 -0.058141 3.89712 0.123699 3.6893L2.87113 0.549385C3.46874 -0.133607 4.53124 -0.133604 5.12886 0.549386L7.87628 3.6893C8.05812 3.89712 8.03706 4.213 7.82924 4.39484C7.62142 4.57668 7.30554 4.55562 7.1237 4.34781L4.37628 1.20789C4.17707 0.980226 3.82291 0.980226 3.6237 1.20789L0.876276 4.34781C0.694435 4.55563 0.378554 4.57668 0.170736 4.39484Z" fill="black"/>
</svg>
