<svg width="18" height="18" viewBox="0 0 18 18" fill="none" xmlns="http://www.w3.org/2000/svg">
<g clip-path="url(#clip0_75_466)">
<path d="M4.64844 3.45C3.98796 3.45 3.45 3.97021 3.45 4.61501V12.8836C3.45 13.7517 4.38922 14.3116 5.18387 13.9258L8.55172 12.2909C8.6765 12.2303 8.8235 12.2303 8.94828 12.2909L12.3161 13.9258C13.1108 14.3116 14.05 13.7517 14.05 12.8836V4.61501C14.05 3.97021 13.512 3.45 12.8516 3.45H4.64844ZM4.20625 4.61501C4.20625 4.38009 4.40282 4.18715 4.64844 4.18715H12.8516C13.0972 4.18715 13.2938 4.38009 13.2938 4.61501V12.8836C13.2938 13.1995 12.9495 13.4098 12.6533 13.266L9.28543 11.6311C8.94833 11.4674 8.55167 11.4674 8.21457 11.6311L4.84671 13.266C4.55051 13.4098 4.20625 13.1995 4.20625 12.8836V4.61501Z" fill="black" stroke="black" stroke-width="0.1"/>
</g>
<defs>
<clipPath id="clip0_75_466">
<rect width="18" height="18" fill="white"/>
</clipPath>
</defs>
</svg>
