<svg width="15" height="15" viewBox="0 0 15 15" fill="none" xmlns="http://www.w3.org/2000/svg">
<g clip-path="url(#clip0_75_451)">
<path fill-rule="evenodd" clip-rule="evenodd" d="M7.54886 2C7.76127 2 7.93347 2.1658 7.93347 2.37032V6.83062L11.9201 4.61445C12.1041 4.51219 12.3393 4.57288 12.4455 4.75C12.5517 4.92712 12.4887 5.15361 12.3047 5.25587L8.26922 7.49919L12.3076 9.74413C12.4916 9.8464 12.5546 10.0729 12.4484 10.25C12.3422 10.4271 12.107 10.4878 11.923 10.3855L7.93347 8.16777L7.93347 12.6297C7.93347 12.8342 7.76127 13 7.54886 13C7.33644 13 7.16425 12.8342 7.16425 12.6297L7.16425 8.11344L3.07698 10.3855C2.89302 10.4878 2.6578 10.4271 2.55159 10.25C2.44539 10.0729 2.50841 9.8464 2.69237 9.74413L6.73078 7.49919L2.69528 5.25587C2.51132 5.15361 2.44829 4.92712 2.5545 4.75C2.66071 4.57288 2.89593 4.51219 3.07989 4.61445L7.16425 6.88494V2.37032C7.16425 2.1658 7.33644 2 7.54886 2Z" fill="black" stroke="black" stroke-width="0.1" stroke-linecap="round"/>
</g>
<defs>
<clipPath id="clip0_75_451">
<rect width="15" height="15" fill="white"/>
</clipPath>
</defs>
</svg>
