<svg width="167" height="54" viewBox="0 0 167 54" fill="none" xmlns="http://www.w3.org/2000/svg">
<path d="M1.02426 0H0V54H1.02426H16.2691V52.7375H1.26246V1.26246H16.2691V0H1.02426Z" fill="black"/>
<path d="M161.4 22.1824C163.472 22.1824 165.235 23.9689 165.235 27.3037C165.235 30.3527 163.639 31.8295 161.876 31.8295C159.637 31.8295 157.994 29.6619 157.994 26.6606C158.018 23.7069 159.637 22.1824 161.4 22.1824ZM161.734 21.6107C158.399 21.6107 156.398 24.2548 156.398 27.137C156.398 30.1859 158.685 32.425 161.567 32.425C164.473 32.425 166.879 30.3289 166.879 26.8988C166.855 23.7069 164.425 21.6107 161.734 21.6107ZM154.54 29.5904C154.302 30.3289 153.992 30.8291 153.73 31.1387C153.373 31.5437 152.825 31.639 151.943 31.639C151.277 31.639 150.729 31.6151 150.419 31.4246C150.133 31.2578 150.062 30.9482 150.062 30.0907V23.8022C150.062 22.4444 150.205 22.373 151.467 22.2777V21.8251H147.322V22.2777C148.609 22.373 148.728 22.4444 148.728 23.8022V30.1621C148.728 31.5199 148.609 31.6152 147.275 31.7104V32.163H154.468C154.611 31.6628 154.945 30.1621 155.04 29.6619L154.54 29.5904ZM139.438 27.137V23.2305C139.438 22.8017 139.509 22.6112 139.605 22.5397C139.724 22.4444 140.01 22.373 140.462 22.373C141.677 22.373 142.797 23.0161 142.797 24.7312C142.797 25.5887 142.535 26.2318 141.915 26.7082C141.51 27.0179 140.986 27.1608 140.176 27.1608H139.438V27.137ZM146.108 31.8772C145.75 31.7819 145.393 31.6151 144.964 31.1387C144.583 30.7338 144.25 30.305 143.678 29.4952C143.202 28.7806 142.535 27.7087 142.273 27.1846C143.44 26.6844 144.297 25.8269 144.297 24.4691C144.297 23.5163 143.892 22.8017 143.249 22.373C142.654 21.968 141.868 21.8251 140.7 21.8251H136.77V22.2777C138.009 22.3968 138.128 22.4444 138.128 23.7784V30.1621C138.128 31.5199 137.985 31.6152 136.675 31.7104V32.163H140.843V31.7342C139.581 31.639 139.438 31.5437 139.438 30.1859V27.661H139.938C140.772 27.661 141.034 27.8516 141.296 28.3042C141.772 29.0902 142.344 30.0668 142.892 30.8529C143.606 31.8772 144.273 32.2345 145.464 32.3059C145.655 32.3298 145.822 32.3297 146.012 32.3297L146.108 31.8772ZM131.196 27.7325H128.266C128.743 26.4224 129.243 25.0408 129.767 23.6831H129.791L131.196 27.7325ZM135.246 32.163V31.7342C134.221 31.639 134.007 31.4961 133.507 30.1383C132.483 27.3752 131.434 24.35 130.434 21.6107L129.934 21.7537L126.647 30.0907C126.099 31.496 125.861 31.5913 124.86 31.7342V32.1868H128.314V31.7342C127.123 31.6151 126.98 31.4722 127.337 30.4718C127.552 29.8048 127.79 29.1379 128.028 28.4233H131.411C131.768 29.3999 132.078 30.2574 132.292 30.8767C132.506 31.496 132.363 31.6151 131.363 31.7581V32.2106H135.246V32.163ZM123.264 29.3761C122.478 30.972 121.621 31.8295 120.001 31.8295C117.595 31.8295 115.832 29.8048 115.832 26.8273C115.832 24.4215 117.238 22.1824 119.906 22.1824C121.621 22.1824 122.573 22.8732 122.978 24.5406L123.455 24.4215C123.359 23.564 123.264 22.9208 123.145 22.0157C122.692 21.9442 121.621 21.5869 120.334 21.5869C116.785 21.5869 114.213 23.8022 114.213 27.137C114.213 29.6619 115.951 32.4012 119.906 32.4012C121.049 32.4012 122.383 32.0915 122.835 31.9724C123.121 31.4484 123.526 30.2812 123.741 29.5428L123.264 29.3761ZM112.045 29.5904C111.831 30.2336 111.545 30.7576 111.259 31.0911C110.902 31.496 110.473 31.639 109.258 31.639C108.472 31.639 107.9 31.6151 107.614 31.4246C107.329 31.2102 107.233 30.8767 107.233 30.1383V27.137H108.734C110.116 27.137 110.235 27.2323 110.425 28.3756H110.878V25.3267H110.425C110.211 26.3986 110.139 26.5177 108.71 26.5177H107.233V22.897C107.233 22.4206 107.257 22.3968 107.757 22.3968H108.972C110.116 22.3968 110.544 22.5159 110.759 22.8494C110.973 23.2067 111.116 23.5402 111.259 24.2071L111.711 24.1357C111.664 23.3258 111.592 22.2539 111.592 21.8489H104.518V22.3015C105.756 22.4206 105.876 22.4683 105.876 23.8975V30.2336C105.876 31.5199 105.756 31.639 104.303 31.7581V32.2106H111.95C112.093 31.7104 112.402 30.2336 112.498 29.7095L112.045 29.5904ZM95.0613 23.4687C95.0613 22.8494 95.1089 22.6826 95.2757 22.5635C95.4424 22.4444 95.8473 22.373 96.5143 22.373C97.5862 22.373 98.4914 22.5635 99.206 23.0161C100.468 23.7545 101.088 25.1837 101.088 26.8035C101.088 29.3522 99.73 31.5675 96.7525 31.5675C95.5853 31.5675 95.0613 31.2578 95.0613 30.0668V23.4687ZM92.3458 21.8489V22.3015C93.5606 22.3968 93.7035 22.4683 93.7035 23.826V30.2098C93.7035 31.5675 93.5844 31.6628 92.2029 31.7581V32.1868H95.9664C97.9197 32.1868 99.4918 31.7819 100.683 30.8767C101.898 29.9477 102.636 28.5424 102.636 26.6368C102.636 25.1361 102.088 23.9689 101.302 23.2305C100.325 22.3015 98.8248 21.8728 96.8001 21.8728H92.3458V21.8489ZM84.9616 22.1824C87.0339 22.1824 88.7966 23.9689 88.7966 27.3037C88.7966 30.3527 87.2007 31.8295 85.438 31.8295C83.1989 31.8295 81.5553 29.6619 81.5553 26.6606C81.5553 23.7069 83.1751 22.1824 84.9616 22.1824ZM85.2712 21.6107C81.9364 21.6107 79.9356 24.2548 79.9356 27.137C79.9356 30.1859 82.2223 32.425 85.1045 32.425C88.0106 32.425 90.4164 30.3289 90.4164 26.8988C90.3925 23.7069 87.9629 21.6107 85.2712 21.6107ZM78.1729 32.163V31.7342C76.7913 31.6151 76.7437 31.5199 76.696 29.8525L76.5293 24.088C76.4817 22.4444 76.6007 22.4206 77.9823 22.3015V21.8489H75.2668L71.5985 29.8048L67.9779 21.8489H65.3815V22.3015C66.8345 22.4444 66.906 22.5159 66.7631 24.5644L66.5487 27.8754C66.4296 29.519 66.3343 30.2336 66.239 30.7814C66.1199 31.4484 65.8103 31.6151 64.8813 31.7342V32.1868H68.5734V31.7342C67.5253 31.6151 67.1442 31.5199 67.1204 30.7576C67.0966 30.1145 67.0966 29.4237 67.168 28.1136L67.4062 23.5878H67.43L70.9792 32.0677H71.2889L75.1716 23.3496H75.243L75.2906 29.8286C75.3145 31.5199 75.243 31.5913 73.9567 31.7104V32.163H78.1729ZM63.1901 32.163V31.7342C61.88 31.639 61.7609 31.5675 61.7609 30.1859V23.826C61.7609 22.4683 61.88 22.373 63.1901 22.2777V21.8251H58.9739V22.2777C60.284 22.373 60.4031 22.4683 60.4031 23.826V30.1859C60.4031 31.5437 60.284 31.639 58.9739 31.7342V32.1868H63.1901V32.163ZM56.8063 24.1595C56.6872 23.159 56.5919 22.5397 56.5443 21.968C55.9488 21.7775 55.2818 21.6107 54.5434 21.6107C52.4949 21.6107 51.2801 22.9208 51.2801 24.4453C51.2801 26.2318 52.876 27.0417 53.9003 27.5657C55.0913 28.2089 55.9726 28.7567 55.9726 29.9239C55.9726 31.0911 55.258 31.8295 54.067 31.8295C52.4234 31.8295 51.7088 30.2336 51.4706 29.257L51.018 29.3761C51.1133 30.1383 51.3277 31.496 51.4468 31.8295C51.5897 31.901 51.8279 32.0201 52.2329 32.163C52.6378 32.2821 53.138 32.4012 53.7812 32.4012C55.9011 32.4012 57.3065 31.0673 57.3065 29.3999C57.3065 27.6134 55.8059 26.875 54.5672 26.2318C53.3048 25.5887 52.5425 25.0408 52.5425 23.8736C52.5425 23.0161 53.0904 22.1348 54.3052 22.1348C55.6868 22.1348 56.0917 23.2305 56.3775 24.2548L56.8063 24.1595ZM48.5646 24.1595C48.4455 23.159 48.3502 22.5397 48.3026 21.968C47.7071 21.7775 47.0401 21.6107 46.3017 21.6107C44.2531 21.6107 43.0383 22.9208 43.0383 24.4453C43.0383 26.2318 44.6343 27.0417 45.6585 27.5657C46.8495 28.2089 47.7309 28.7567 47.7309 29.9239C47.7309 31.0911 47.0163 31.8295 45.8253 31.8295C44.1817 31.8295 43.4671 30.2336 43.2289 29.257L42.7763 29.3761C42.8716 30.1383 43.086 31.496 43.2051 31.8295C43.348 31.901 43.5862 32.0201 43.9911 32.163C44.3961 32.2821 44.8963 32.4012 45.5394 32.4012C47.6594 32.4012 49.0648 31.0673 49.0648 29.3999C49.0648 27.6134 47.5641 26.875 46.3255 26.2318C45.063 25.5887 44.3008 25.0408 44.3008 23.8736C44.3008 23.0161 44.8487 22.1348 46.0635 22.1348C47.445 22.1348 47.85 23.2305 48.1358 24.2548L48.5646 24.1595ZM37.2262 27.7325H34.2964C34.7728 26.4224 35.273 25.0408 35.797 23.6831H35.8209L37.2262 27.7325ZM41.2756 32.163V31.7342C40.2514 31.639 40.037 31.4961 39.5368 30.1383C38.5125 27.3752 37.4644 24.35 36.464 21.6107L35.9638 21.7537L32.6766 30.0907C32.1288 31.496 31.8906 31.5913 30.8901 31.7342V32.1868H34.344V31.7342C33.153 31.6151 33.0101 31.4722 33.3674 30.4718C33.5818 29.8048 33.82 29.1379 34.0582 28.4233H37.4406C37.7979 29.3999 38.1076 30.2574 38.322 30.8767C38.5363 31.496 38.3934 31.6151 37.393 31.7581V32.2106H41.2756V32.163ZM29.5562 32.163V31.7342C28.1746 31.6151 28.127 31.5199 28.0794 29.8525L27.9126 24.088C27.865 22.4444 27.9841 22.4206 29.3656 22.3015V21.8489H26.674L23.0057 29.8048L19.385 21.8489H16.7648V22.3015C18.2179 22.4444 18.2893 22.5159 18.1464 24.5644L17.932 27.8754C17.8129 29.519 17.7176 30.2336 17.6224 30.7814C17.5033 31.4484 17.1936 31.6151 16.2646 31.7342V32.1868H19.9567V31.7342C18.9086 31.6151 18.5275 31.5199 18.5037 30.7576C18.4799 30.1145 18.4799 29.4237 18.5513 28.1136L18.7895 23.5878H18.8134L22.3625 32.0677H22.6722L26.5549 23.3496H26.6263L26.674 29.8286C26.6978 31.5199 26.6263 31.5913 25.34 31.7104V32.163H29.5562Z" fill="black"/>
</svg>
