<svg width="669" height="122" viewBox="0 0 669 122" fill="none" xmlns="http://www.w3.org/2000/svg">
<path d="M2.31242 0H0V122H2.31242H36.7297V119.148H2.85018V2.85222H36.7297V0H2.31242Z" fill="black"/>
<path d="M364.383 50.1158C369.062 50.1158 373.041 54.152 373.041 61.6861C373.041 68.5745 369.438 71.9111 365.459 71.9111C360.404 71.9111 356.693 67.0139 356.693 60.2331C356.747 53.56 360.404 50.1158 364.383 50.1158ZM365.136 48.8242C357.607 48.8242 353.09 54.7978 353.09 61.3094C353.09 68.1978 358.253 73.2565 364.76 73.2565C371.32 73.2565 376.752 68.5207 376.752 60.7713C376.698 53.56 371.213 48.8242 365.136 48.8242ZM348.895 66.8524C348.358 68.5207 347.659 69.6509 347.067 70.3505C346.26 71.2653 345.023 71.4806 343.034 71.4806C341.528 71.4806 340.291 71.4268 339.592 70.9962C338.947 70.6195 338.785 69.92 338.785 67.9826V53.7752C338.785 50.7078 339.108 50.5463 341.958 50.3311V49.3086H332.601V50.3311C335.505 50.5463 335.774 50.7078 335.774 53.7752V68.144C335.774 71.2115 335.505 71.4268 332.493 71.6421V72.6645H348.734C349.057 71.5344 349.81 68.144 350.025 67.0139L348.895 66.8524ZM314.801 61.3094V52.4837C314.801 51.515 314.962 51.0845 315.177 50.923C315.446 50.7078 316.091 50.5463 317.113 50.5463C319.856 50.5463 322.383 51.9993 322.383 55.8741C322.383 57.8114 321.792 59.2644 320.394 60.3408C319.479 61.0404 318.296 61.3633 316.468 61.3633H314.801V61.3094ZM329.858 72.0188C329.052 71.8035 328.245 71.4268 327.277 70.3505C326.417 69.4356 325.664 68.4669 324.373 66.6372C323.298 65.0227 321.792 62.601 321.2 61.4171C323.835 60.2869 325.771 58.3496 325.771 55.2821C325.771 53.1295 324.857 51.515 323.405 50.5463C322.061 49.6315 320.286 49.3086 317.651 49.3086H308.778V50.3311C311.574 50.6001 311.843 50.7078 311.843 53.7214V68.144C311.843 71.2115 311.52 71.4268 308.563 71.6421V72.6645H317.974V71.6959C315.123 71.4806 314.801 71.2653 314.801 68.1978V62.4934H315.93C317.812 62.4934 318.404 62.9239 318.995 63.9464C320.071 65.7223 321.362 67.9288 322.598 69.7047C324.212 72.0188 325.718 72.826 328.406 72.9874C328.837 73.0413 329.213 73.0412 329.643 73.0412L329.858 72.0188ZM296.194 62.6548H289.579C290.655 59.695 291.784 56.5737 292.967 53.5062H293.021L296.194 62.6548ZM305.336 72.6645V71.6959C303.024 71.4806 302.54 71.1577 301.41 68.0902C299.098 61.8476 296.732 55.013 294.473 48.8242L293.344 49.1471L285.923 67.9826C284.686 71.1577 284.148 71.373 281.889 71.6959V72.7183H289.687V71.6959C286.998 71.4268 286.675 71.1039 287.482 68.8436C287.966 67.3368 288.504 65.83 289.042 64.2155H296.678C297.485 66.4219 298.184 68.3593 298.668 69.7585C299.152 71.1577 298.829 71.4268 296.57 71.7497V72.7722H305.336V72.6645ZM278.286 66.3681C276.512 69.9737 274.576 71.9111 270.919 71.9111C265.487 71.9111 261.508 67.3368 261.508 60.6098C261.508 55.1745 264.681 50.1158 270.704 50.1158C274.576 50.1158 276.727 51.6764 277.641 55.4435L278.716 55.1745C278.501 53.2371 278.286 51.7841 278.017 49.7391C276.996 49.5776 274.576 48.7704 271.672 48.7704C263.659 48.7704 257.851 53.7753 257.851 61.3094C257.851 67.0139 261.777 73.2027 270.704 73.2027C273.285 73.2027 276.296 72.5031 277.318 72.234C277.964 71.0501 278.878 68.4131 279.362 66.7448L278.286 66.3681ZM252.957 66.8524C252.473 68.3055 251.828 69.4894 251.183 70.2428C250.376 71.1577 249.408 71.4806 246.665 71.4806C244.891 71.4806 243.6 71.4268 242.955 70.9962C242.309 70.5119 242.094 69.7585 242.094 68.0902V61.3094H245.482C248.601 61.3094 248.87 61.5247 249.3 64.1079H250.322V57.2195H249.3C248.816 59.6412 248.655 59.9102 245.428 59.9102H242.094V51.7303C242.094 50.654 242.148 50.6001 243.277 50.6001H246.02C248.601 50.6001 249.569 50.8692 250.053 51.6226C250.537 52.4299 250.86 53.1833 251.183 54.6901L252.204 54.5287C252.097 52.699 251.935 50.2772 251.935 49.3624H235.964V50.3849C238.76 50.654 239.029 50.7616 239.029 53.9905V68.3055C239.029 71.2115 238.76 71.4806 235.48 71.7497V72.7722H252.742C253.065 71.642 253.764 68.3055 253.979 67.1215L252.957 66.8524ZM214.614 53.0218C214.614 51.6226 214.722 51.2459 215.098 50.9769C215.475 50.7078 216.389 50.5463 217.895 50.5463C220.315 50.5463 222.358 50.9768 223.971 51.9993C226.822 53.6676 228.22 56.8966 228.22 60.556C228.22 66.3143 225.154 71.3192 218.432 71.3192C215.797 71.3192 214.614 70.6195 214.614 67.9288V53.0218ZM208.484 49.3624V50.3849C211.226 50.6001 211.549 50.7616 211.549 53.8291V68.2517C211.549 71.3192 211.28 71.5344 208.161 71.7497V72.7183H216.658C221.067 72.7183 224.617 71.8035 227.305 69.7585C230.048 67.6597 231.715 64.4846 231.715 60.1793C231.715 56.7889 230.478 54.152 228.704 52.4837C226.499 50.3849 223.111 49.4162 218.54 49.4162H208.484V49.3624ZM191.813 50.1158C196.491 50.1158 200.471 54.152 200.471 61.6861C200.471 68.5745 196.868 71.9111 192.888 71.9111C187.833 71.9111 184.123 67.0139 184.123 60.2331C184.123 53.56 187.779 50.1158 191.813 50.1158ZM192.512 48.8242C184.983 48.8242 180.466 54.7978 180.466 61.3094C180.466 68.1978 185.628 73.2565 192.135 73.2565C198.696 73.2565 204.128 68.5207 204.128 60.7713C204.074 53.56 198.589 48.8242 192.512 48.8242ZM176.486 72.6645V71.6959C173.367 71.4268 173.26 71.2115 173.152 67.4444L172.776 54.4211C172.668 50.7078 172.937 50.654 176.056 50.3849V49.3624H169.925L161.644 67.3368L153.47 49.3624H147.608V50.3849C150.888 50.7078 151.05 50.8692 150.727 55.4974L150.243 62.9777C149.974 66.691 149.759 68.3055 149.544 69.5432C149.275 71.0501 148.576 71.4268 146.479 71.6959V72.7183H154.814V71.6959C152.448 71.4268 151.587 71.2115 151.534 69.4894C151.48 68.0364 151.48 66.4757 151.641 63.5159L152.179 53.2909H152.233L160.246 72.4493H160.945L169.71 52.7528H169.872L169.979 67.3906C170.033 71.2115 169.872 71.373 166.968 71.6421V72.6645H176.486ZM142.66 72.6645V71.6959C139.703 71.4806 139.434 71.3191 139.434 68.1978V53.8291C139.434 50.7616 139.703 50.5463 142.66 50.3311V49.3086H133.142V50.3311C136.1 50.5463 136.369 50.7616 136.369 53.8291V68.1978C136.369 71.2653 136.1 71.4806 133.142 71.6959V72.7183H142.66V72.6645ZM128.248 54.5825C127.979 52.3222 127.764 50.923 127.657 49.6315C126.312 49.2009 124.806 48.8242 123.139 48.8242C118.515 48.8242 115.772 51.7841 115.772 55.2283C115.772 59.2644 119.375 61.0942 121.687 62.2781C124.376 63.7311 126.366 64.9689 126.366 67.6059C126.366 70.2428 124.753 71.9111 122.064 71.9111C118.353 71.9111 116.74 68.3055 116.202 66.099L115.18 66.3681C115.395 68.0902 115.879 71.1577 116.148 71.9111C116.471 72.0726 117.009 72.3416 117.923 72.6645C118.837 72.9336 119.967 73.2027 121.418 73.2027C126.205 73.2027 129.378 70.189 129.378 66.4219C129.378 62.3858 125.99 60.7175 123.193 59.2644C120.343 57.8114 118.622 56.5737 118.622 53.9367C118.622 51.9993 119.859 50.0082 122.602 50.0082C125.721 50.0082 126.635 52.4837 127.28 54.7978L128.248 54.5825ZM109.641 54.5825C109.372 52.3222 109.157 50.923 109.05 49.6315C107.705 49.2009 106.2 48.8242 104.533 48.8242C99.9077 48.8242 97.1651 51.7841 97.1651 55.2283C97.1651 59.2644 100.768 61.0942 103.081 62.2781C105.769 63.7311 107.759 64.9689 107.759 67.6059C107.759 70.2428 106.146 71.9111 103.457 71.9111C99.7463 71.9111 98.133 68.3055 97.5953 66.099L96.5735 66.3681C96.7886 68.0902 97.2726 71.1577 97.5415 71.9111C97.8642 72.0726 98.4019 72.3416 99.3161 72.6645C100.23 72.9336 101.36 73.2027 102.812 73.2027C107.598 73.2027 110.771 70.189 110.771 66.4219C110.771 62.3858 107.383 60.7175 104.586 59.2644C101.736 57.8114 100.015 56.5737 100.015 53.9367C100.015 51.9993 101.252 50.0082 103.995 50.0082C107.114 50.0082 108.028 52.4837 108.673 54.7978L109.641 54.5825ZM84.0435 62.6548H77.4289C78.5044 59.695 79.6337 56.5737 80.8168 53.5062H80.8706L84.0435 62.6548ZM93.1855 72.6645V71.6959C90.8731 71.4806 90.3891 71.1577 89.2598 68.0902C86.9474 61.8476 84.5812 55.013 82.3226 48.8242L81.1933 49.1471L73.772 67.9826C72.5352 71.1577 71.9974 71.373 69.7388 71.6959V72.7183H77.5364V71.6959C74.8476 71.4268 74.5249 71.1039 75.3316 68.8436C75.8156 67.3368 76.3533 65.83 76.8911 64.2155H84.5275C85.3341 66.4219 86.0332 68.3593 86.5172 69.7585C87.0012 71.1577 86.6785 71.4268 84.4199 71.7497V72.7722H93.1855V72.6645ZM66.7272 72.6645V71.6959C63.6082 71.4268 63.5006 71.2115 63.3931 67.4444L63.0166 54.4211C62.9091 50.7078 63.1779 50.654 66.297 50.3849V49.3624H60.2202L51.9386 67.3368L43.7644 49.3624H37.849V50.3849C41.1294 50.7078 41.2907 50.8692 40.968 55.4974L40.484 62.9777C40.2151 66.691 40 68.3055 39.7849 69.5432C39.5161 71.0501 38.817 71.4268 36.7196 71.6959V72.7183H45.0551V71.6959C42.6889 71.4268 41.8285 71.2115 41.7747 69.4894C41.7209 68.0364 41.7209 66.4757 41.8822 63.5159L42.42 53.2909H42.4738L50.4866 72.4493H51.1857L59.9513 52.7528H60.1127L60.2202 67.3906C60.274 71.2115 60.1127 71.373 57.2087 71.6421V72.6645H66.7272Z" fill="black"/>
<path d="M632.216 0V2.85222H666.096V119.148H632.216V122H666.688H669V0H632.216Z" fill="black"/>
</svg>
